<svg xmlns="http://www.w3.org/2000/svg" viewBox="0 0 287 56">
  <path fill="#FFF" fill-rule="evenodd" d="M14.384.648c5.845 0 10.39 1.216 13.632 3.648 3.243 2.432 4.864 6.037 4.864 10.816 0 4.992-1.59 8.757-4.768 11.296-3.179 2.539-7.435 3.808-12.768 3.808h-4.8V45H.048V.648h14.336zm.064 22.016c2.475 0 4.363-.587 5.664-1.76 1.301-1.173 1.952-3.104 1.952-5.792 0-4.65-2.603-6.976-7.808-6.976h-3.712v14.528h3.904zm50.816 12.48c0 1.28.181 2.219.544 2.816.363.597.95 1.045 1.76 1.344l-2.112 6.592c-2.09-.17-3.797-.63-5.12-1.376-1.323-.747-2.347-1.93-3.072-3.552-2.219 3.413-5.632 5.12-10.24 5.12-3.37 0-6.059-.981-8.064-2.944s-3.008-4.523-3.008-7.68c0-3.712 1.365-6.55 4.096-8.512 2.73-1.963 6.677-2.944 11.84-2.944h3.456v-1.472c0-2.005-.427-3.381-1.28-4.128-.853-.747-2.347-1.12-4.48-1.12-1.11 0-2.453.16-4.032.48-1.579.32-3.2.757-4.864 1.312l-2.304-6.656c2.133-.81 4.32-1.43 6.56-1.856 2.24-.427 4.32-.64 6.24-.64 4.864 0 8.427 1.003 10.688 3.008 2.261 2.005 3.392 5.013 3.392 9.024v13.184zm-15.296 3.712c2.304 0 4.096-1.088 5.376-3.264v-6.016h-2.496c-2.304 0-4.021.405-5.152 1.216-1.13.81-1.696 2.07-1.696 3.776 0 1.365.352 2.421 1.056 3.168.704.747 1.675 1.12 2.912 1.12zm54.336-1.28v18.048h-7.04L96.112 45h-18.56L76.4 55.624h-7.04V37.576h2.112a6.56 6.56 0 0 0 1.888-2.144c.49-.875.939-2.315 1.344-4.32.405-2.005.757-4.864 1.056-8.576l.96-11.52h24v26.56h3.584zM91.248 17.672H85.36l-.32 3.968c-.299 3.413-.672 6.155-1.12 8.224-.448 2.07-1.056 3.69-1.824 4.864-.768 1.173-1.792 2.123-3.072 2.848h12.224V17.672zM138.736 45h-9.6V32.904c0-2.39.128-4.65.384-6.784.256-2.133.576-3.925.96-5.376L119.152 45h-10.304V11.016h9.664v12.288a52.6 52.6 0 0 1-.416 6.656c-.277 2.176-.587 3.968-.928 5.376l11.2-24.32h10.368V45zm22.656-35.072c5.205 0 9.28 1.59 12.224 4.768 2.944 3.179 4.416 7.627 4.416 13.344 0 3.627-.672 6.795-2.016 9.504-1.344 2.71-3.264 4.81-5.76 6.304-2.496 1.493-5.45 2.24-8.864 2.24-5.163 0-9.227-1.59-12.192-4.768-2.965-3.179-4.448-7.627-4.448-13.344 0-3.627.672-6.795 2.016-9.504 1.344-2.71 3.264-4.81 5.76-6.304 2.496-1.493 5.45-2.24 8.864-2.24zm0 7.424c-2.048 0-3.584.864-4.608 2.592-1.024 1.728-1.536 4.405-1.536 8.032 0 3.712.501 6.421 1.504 8.128 1.003 1.707 2.55 2.56 4.64 2.56 2.048 0 3.584-.864 4.608-2.592 1.024-1.728 1.536-4.405 1.536-8.032 0-3.712-.501-6.421-1.504-8.128-1.003-1.707-2.55-2.56-4.64-2.56zm51.2-6.336V45H202.48V18.44h-6.464l-.64 7.232c-.47 4.992-1.013 8.715-1.632 11.168-.619 2.453-1.696 4.384-3.232 5.792-1.536 1.408-3.883 2.475-7.04 3.2l-2.496-7.36c1.408-.64 2.4-1.312 2.976-2.016.576-.704 1.013-1.835 1.312-3.392.299-1.557.576-4.192.832-7.904l1.024-14.144h25.472zm36.48 0V45H238.96V18.44h-6.464l-.64 7.232c-.47 4.992-1.013 8.715-1.632 11.168-.619 2.453-1.696 4.384-3.232 5.792-1.536 1.408-3.883 2.475-7.04 3.2l-2.496-7.36c1.408-.64 2.4-1.312 2.976-2.016.576-.704 1.013-1.835 1.312-3.392.299-1.557.576-4.192.832-7.904l1.024-14.144h25.472zm34.944 24.128c0 1.28.181 2.219.544 2.816.363.597.95 1.045 1.76 1.344l-2.112 6.592c-2.09-.17-3.797-.63-5.12-1.376-1.323-.747-2.347-1.93-3.072-3.552-2.219 3.413-5.632 5.12-10.24 5.12-3.37 0-6.059-.981-8.064-2.944s-3.008-4.523-3.008-7.68c0-3.712 1.365-6.55 4.096-8.512 2.73-1.963 6.677-2.944 11.84-2.944h3.456v-1.472c0-2.005-.427-3.381-1.28-4.128-.853-.747-2.347-1.12-4.48-1.12-1.11 0-2.453.16-4.032.48-1.579.32-3.2.757-4.864 1.312l-2.304-6.656c2.133-.81 4.32-1.43 6.56-1.856 2.24-.427 4.32-.64 6.24-.64 4.864 0 8.427 1.003 10.688 3.008 2.261 2.005 3.392 5.013 3.392 9.024v13.184zm-15.296 3.712c2.304 0 4.096-1.088 5.376-3.264v-6.016H271.6c-2.304 0-4.021.405-5.152 1.216-1.13.81-1.696 2.07-1.696 3.776 0 1.365.352 2.421 1.056 3.168.704.747 1.675 1.12 2.912 1.12z"/>
</svg>
