<svg xmlns="http://www.w3.org/2000/svg" viewBox="0 0 777 535">
  <defs>
    <linearGradient id="a" x1=".258%" x2="101.258%" y1="49.75%" y2="49.75%">
      <stop offset="0%" stop-color="#3023AE"/>
      <stop offset="47.525%" stop-color="#53A0FD"/>
      <stop offset="100%" stop-color="#B4EC51"/>
    </linearGradient>
  </defs>
  <g fill="none" fill-rule="evenodd" stroke="url(#a)" transform="translate(-266 -230)">
    <path d="M938.692 242.935L609.935 392.687l218.71 369.476c109.596-21.763 178.368-96.079 206.315-222.946 37.334-169.48-96.268-296.282-96.268-296.282z" opacity=".05"/>
    <path d="M899.727 237.958l-317.51 172.32 243.95 353.319c107.811-29.355 171.231-108.287 190.26-236.795 25.421-171.671-116.7-288.844-116.7-288.844z" opacity=".1"/>
    <path d="M860.46 234.315l-304.716 194.05 268.003 335.44c105.5-36.804 163.26-119.967 173.278-249.49 13.384-173.026-136.565-280-136.565-280z" opacity=".15"/>
    <path d="M820.986 232.026L530.548 446.858l290.75 315.93c102.676-44.074 154.493-131.064 155.452-260.97 1.282-173.539-155.764-269.792-155.764-269.792z" opacity=".2"/>
    <path d="M781.4 231.1L506.655 465.67l312.08 294.877c99.351-51.128 144.975-141.52 136.87-271.177C944.777 316.164 781.4 231.1 781.4 231.1z" opacity=".25"/>
    <path d="M741.797 231.544L484.084 484.706l331.89 272.39c95.542-57.934 134.749-151.29 117.62-280.064-22.884-172.028-191.797-245.488-191.797-245.488z" opacity=".3"/>
    <path d="M702.273 233.353L462.848 503.876l350.08 248.575c91.27-64.458 123.869-160.32 97.798-287.587-34.827-170.013-208.453-231.51-208.453-231.51z" opacity=".35"/>
    <path d="M662.922 236.52L442.951 523.086l366.568 223.549c86.55-70.668 112.383-168.57 77.498-293.709C840.415 285.757 662.922 236.52 662.922 236.52z" opacity=".4"/>
    <path d="M623.84 241.03L424.394 542.24l381.27 197.434c81.41-76.533 100.35-176 56.82-298.399C804.335 277.765 623.84 241.03 623.84 241.03z" opacity=".45"/>
    <path d="M585.118 246.859L407.17 561.249l394.113 170.357c75.873-82.025 87.829-182.57 35.867-301.635-69.414-159.057-252.032-183.112-252.032-183.112z" opacity=".5"/>
    <path d="M546.849 253.98L391.265 580.018l405.036 142.45c69.967-87.119 74.88-188.253 14.74-303.403C730.7 265.238 546.848 253.98 546.848 253.98z" opacity=".55"/>
    <path d="M509.121 262.358L376.659 598.454l413.987 113.85c63.719-91.787 61.565-193.018-6.461-303.692C693.31 260.764 509.12 262.358 509.12 262.358z" opacity=".6"/>
    <path d="M472.02 271.952s-36.23 114.84-108.693 344.518l420.92 84.694c57.16-96.008 47.95-196.842-27.63-302.502C655.65 257.513 472.02 271.952 472.02 271.952z" opacity=".65"/>
    <path d="M435.631 282.716l-84.397 351.26 425.803 55.126c50.324-99.761 34.103-199.707-48.664-299.837-110.567-133.762-292.742-106.55-292.742-106.55z" opacity=".7"/>
    <path d="M400.033 294.597l-59.69 356.292 428.611 25.289c43.243-103.029 20.09-201.6-69.46-295.712-119.63-125.724-299.461-85.87-299.461-85.87z" opacity=".75"/>
    <path d="M365.3 307.537l-34.689 359.588 429.33-4.671c35.951-105.795 5.978-202.51-89.92-290.147-128.106-117.072-304.72-64.77-304.72-64.77z" opacity=".8"/>
    <path d="M331.507 321.473l-9.521 361.132 427.959-34.608c28.483-108.045-8.164-202.434-109.94-283.168-135.962-107.85-308.498-43.356-308.498-43.356z" opacity=".85"/>
    <path d="M298.72 336.337s5.23 120.306 15.693 360.917l424.502-64.377c20.877-109.768-22.265-201.371-129.425-274.809-143.154-98.104-310.77-21.73-310.77-21.73z" opacity=".9"/>
    <path d="M267 352.057L307.831 711l418.978-93.832c13.169-110.957-36.258-199.327-148.28-265.11-149.648-87.88-311.529 0-311.529 0z" opacity=".95"/>
  </g>
</svg>
